PathFileType	4	(X/Y/Z)	/Users/itak/Documents/Research/Walk-IL/dataset/trc/00112_00007.trc
DataRate	CameraRate	NumFrames	NumMarkers	Units	OrigDataRate	OrigDataStartFrame	OrigNumFrames
100.000000	100.000000	4	53	mm	100.000000	70	560
Frame#	Time	RPSI			LPSI			L3			STRN			T10			C7			CLAV			RBAK			LBAK			LSHO			LUPA			LAEL			LAOL			LWTS			LWPS			LFRA			LIFD			LHPS			LHTS			RSHO			RUPA			RAEL			RAOL			RWTS			RWPS			RFRA			RIFD			RHTS			RHPS			RBHD			LFHD			RFHD			LBHD			LHIP			RHIP			RASI			LASI			LKNE			LTHI			LANK			LTIP			LTOE			LMT1			LMT5			LHEE			RKNE			RTHI			RANK			RTIP			RTOE			RMT1			RMT5			RHEE			
		X1	Y1	Z1	X2	Y2	Z2	X3	Y3	Z3	X4	Y4	Z4	X5	Y5	Z5	X6	Y6	Z6	X7	Y7	Z7	X8	Y8	Z8	X9	Y9	Z9	X10	Y10	Z10	X11	Y11	Z11	X12	Y12	Z12	X13	Y13	Z13	X14	Y14	Z14	X15	Y15	Z15	X16	Y16	Z16	X17	Y17	Z17	X18	Y18	Z18	X19	Y19	Z19	X20	Y20	Z20	X21	Y21	Z21	X22	Y22	Z22	X23	Y23	Z23	X24	Y24	Z24	X25	Y25	Z25	X26	Y26	Z26	X27	Y27	Z27	X28	Y28	Z28	X29	Y29	Z29	X30	Y30	Z30	X31	Y31	Z31	X32	Y32	Z32	X33	Y33	Z33	X34	Y34	Z34	X35	Y35	Z35	X36	Y36	Z36	X37	Y37	Z37	X38	Y38	Z38	X39	Y39	Z39	X40	Y40	Z40	X41	Y41	Z41	X42	Y42	Z42	X43	Y43	Z43	X44	Y44	Z44	X45	Y45	Z45	X46	Y46	Z46	X47	Y47	Z47	X48	Y48	Z48	X49	Y49	Z49	X50	Y50	Z50	X51	Y51	Z51	X52	Y52	Z52	X53	Y53	Z53	

71	0.7000000000000001	516.1221923828125	1123.213989257812	-271.97607421875	513.1507568359375	1123.746215820312	-406.5044860839844	507.579345703125	1156.094116210938	-341.696044921875	713.8661499023438	1364.729370117188	-345.248046875	462.6183166503906	1303.376831054688	-345.1681213378906	484.6414184570312	1596.727416992188	-361.8236083984375	672.1620483398438	1498.074096679688	-349.4463500976562	439.2255859375	1410.507080078125	-273.6577453613281	478.9058227539062	1575.496704101562	-463.0693664550781	567.9630126953125	1564.785766601562	-529.2505493164062	556.0055541992188	1431.905517578125	-598.3265991210938	585.9474487304688	1213.133056640625	-614.7720947265625	515.9136352539062	1197.931640625	-563.0447998046875	698.0076904296875	964.2069702148438	-556.7659301757812	620.34375	931.7596435546875	-589.9903564453125	609.9928588867188	1098.27099609375	-614.3427734375	717.8878173828125	770.6624145507812	-527.9296875	653.5322265625	858.1129760742188	-586.2171020507812	718.8591918945312	875.224365234375	-564.1055297851562	537.6039428710938	1579.732543945312	-178.3873596191406	523.2702026367188	1504.958129882812	-115.5011978149414	526.552734375	1210.177368164062	-97.49343872070312	523.1519165039062	1210.065795898438	-193.4799957275391	680.1796264648438	973.9127197265625	-112.9888229370117	607.2469482421875	954.1103515625	-81.32616424560547	553.4317626953125	1137.892456054688	-82.56131744384766	711.6542358398438	780.7684936523438	-131.9753112792969	713.6775512695312	866.7440795898438	-108.7512817382812	648.72705078125	856.101318359375	-77.77533721923828	516.4058227539062	1771.713989257812	-283.5339050292969	682.2405395507812	1843.496704101562	-409.4673461914062	676.0126953125	1848.422241210938	-279.9725341796875	512.9325561523438	1770.566284179688	-418.8770446777344	604.686767578125	1036.70458984375	-513.6705322265625	645.6170043945312	1032.458374023438	-155.6849822998047	724.1428833007812	1108.993530273438	-210.5071868896484	714.1691284179688	1107.9091796875	-477.6395263671875	639.6666259765625	536.2261962890625	-484.07080078125	615.38232421875	681.39208984375	-510.1507568359375	514.4004516601562	35.11864852905273	-471.3836364746094	531.1625366210938	289.6751098632812	-505.8008422851562	749.3211669921875	35.66858291625977	-423.2563781738281	668.5936279296875	41.3476448059082	-386.6756286621094	638.0390625	32.87808990478516	-501.5980834960938	448.2825927734375	37.00948715209961	-407.3072814941406	644.95458984375	540.0889282226562	-185.4377593994141	673.3358764648438	825.3134765625	-164.0814971923828	530.9133911132812	29.73433685302734	-192.1139373779297	617.34814453125	406.5797729492188	-171.3039093017578	762.5687255859375	42.22400665283203	-250.3725280761719	700.1765747070312	29.39095115661621	-291.4418334960938	665.9617309570312	38.7374153137207	-175.0352630615234	472.194580078125	32.31150436401367	-239.7948150634766	
72	0.71	516.2514038085938	1123.191528320312	-271.8463439941406	513.2186279296875	1123.73046875	-406.3570556640625	507.7367858886719	1156.088500976562	-341.5997009277344	713.9861450195312	1364.707397460938	-345.1594543457031	462.7584228515625	1303.349365234375	-345.0177001953125	484.7634582519531	1596.70068359375	-361.6878051757812	672.2816772460938	1498.060791015625	-349.349853515625	439.3406982421875	1410.46923828125	-273.5090637207031	479.0552368164062	1575.516723632812	-462.9072875976562	568.0458374023438	1564.83935546875	-529.1076049804688	556.0541381835938	1431.960571289062	-598.2327270507812	586.0575561523438	1213.2197265625	-614.8152465820312	515.9794311523438	1197.998291015625	-563.11376953125	698.0368041992188	964.2272338867188	-556.9114379882812	620.3919067382812	931.8102416992188	-590.1799926757812	610.0975952148438	1098.364379882812	-614.4618530273438	717.9259643554688	770.6771850585938	-528.2083129882812	653.5729370117188	858.1736450195312	-586.4954833984375	718.856689453125	875.2714233398438	-564.3018798828125	537.7738647460938	1579.685302734375	-178.2388458251953	523.4354248046875	1504.90576171875	-115.3615798950195	526.7343139648438	1210.131958007812	-97.33346557617188	523.3576049804688	1209.976318359375	-193.2712097167969	680.32421875	973.8905029296875	-112.8607940673828	607.4097290039062	954.0704345703125	-81.1568603515625	553.6595458984375	1137.851928710938	-82.39772796630859	711.8097534179688	780.7160034179688	-131.83837890625	713.8403930664062	866.6852416992188	-108.6220321655273	648.9075927734375	856.0769653320312	-77.61281585693359	516.4976196289062	1771.697021484375	-283.435546875	682.3734741210938	1843.485961914062	-409.3104858398438	676.087890625	1848.391235351562	-279.8206176757812	513.0879516601562	1770.584594726562	-418.7821350097656	604.6936645507812	1036.709716796875	-513.63134765625	645.7088623046875	1032.450317382812	-155.6519622802734	724.2860717773438	1108.949096679688	-210.4744415283203	714.2452392578125	1107.918579101562	-477.5765991210938	639.6983642578125	536.2044677734375	-484.0271301269531	615.4163208007812	681.40283203125	-510.072021484375	514.404296875	35.13388442993164	-471.3795471191406	531.1815795898438	289.6943664550781	-505.7696533203125	749.322265625	35.66672897338867	-423.2573547363281	668.5901489257812	41.34120559692383	-386.6716613769531	638.0430908203125	32.88386535644531	-501.5882568359375	448.2836608886719	37.01025009155273	-407.29638671875	645.0165405273438	540.0629272460938	-185.4149475097656	673.5656127929688	825.3483276367188	-164.1251373291016	530.9161376953125	29.73178482055664	-192.1128692626953	617.4026489257812	406.5662841796875	-171.2600708007812	762.57373046875	42.20979690551758	-250.3818511962891	700.1807250976562	29.38433265686035	-291.4435424804688	665.965576171875	38.73811721801758	-175.0381317138672	472.1913452148438	32.31208801269531	-239.7909393310547	
73	0.72	516.3815307617188	1123.1708984375	-271.7187805175781	513.3058471679688	1123.7099609375	-406.20849609375	507.8934326171875	1156.08935546875	-341.5057373046875	714.1113891601562	1364.688232421875	-345.0714721679688	462.8910522460938	1303.328857421875	-344.8546447753906	484.9083251953125	1596.677124023438	-361.5460510253906	672.403564453125	1498.043579101562	-349.25390625	439.4595031738281	1410.437133789062	-273.3644409179688	479.1887512207031	1575.532348632812	-462.7545776367188	568.1368408203125	1564.89013671875	-528.9743041992188	556.1110229492188	1432.016235351562	-598.130859375	586.1412963867188	1213.291625976562	-614.8375244140625	516.0316772460938	1198.06591796875	-563.1594848632812	698.03759765625	964.234619140625	-557.0447387695312	620.4005126953125	931.8456420898438	-590.32861328125	610.1728515625	1098.447143554688	-614.5574951171875	717.9248657226562	770.6783447265625	-528.466552734375	653.5592651367188	858.22802734375	-586.7337646484375	718.8279418945312	875.3059692382812	-564.4814453125	537.9501953125	1579.64013671875	-178.0916290283203	523.61083984375	1504.859985351562	-115.2214508056641	526.9265747070312	1210.090087890625	-97.15494537353516	523.554931640625	1209.892211914062	-193.0574035644531	680.4783325195312	973.8746337890625	-112.7242965698242	607.566162109375	954.0300903320312	-80.97831726074219	553.8939208984375	1137.816650390625	-82.22417449951172	711.9659423828125	780.664306640625	-131.70458984375	714.0155029296875	866.632080078125	-108.4882507324219	649.08056640625	856.057861328125	-77.44789123535156	516.580810546875	1771.682861328125	-283.345947265625	682.5087280273438	1843.474853515625	-409.1483154296875	676.1514282226562	1848.367309570312	-279.6585083007812	513.2701416015625	1770.597534179688	-418.6905822753906	604.7113647460938	1036.715698242188	-513.5888671875	645.810546875	1032.4404296875	-155.6115264892578	724.435791015625	1108.909301757812	-210.4416961669922	714.3192749023438	1107.921508789062	-477.5035400390625	639.733154296875	536.1844482421875	-483.9811401367188	615.4591064453125	681.4163208007812	-509.9905395507812	514.4111328125	35.14831924438477	-471.3744812011719	531.203857421875	289.7146606445312	-505.7369689941406	749.3236694335938	35.6612548828125	-423.25830078125	668.5869750976562	41.33402252197266	-386.6680603027344	638.0479125976562	32.89071655273438	-501.5776672363281	448.2857666015625	37.01277923583984	-407.2848205566406	645.0726928710938	540.0391845703125	-185.3903045654297	673.7777099609375	825.369140625	-164.1612396240234	530.9185180664062	29.72863578796387	-192.1123352050781	617.449462890625	406.5526733398438	-171.2177734375	762.580810546875	42.19617462158203	-250.3923645019531	700.1854248046875	29.37849807739258	-291.4446411132812	665.9689331054688	38.73903274536133	-175.04052734375	472.1879577636719	32.31205368041992	-239.7876892089844	
74	0.73	516.5114135742188	1123.1533203125	-271.5949401855469	513.4161376953125	1123.687377929688	-406.0632934570312	508.0464477539062	1156.09765625	-341.4139404296875	714.2390747070312	1364.673583984375	-344.9858703613281	463.0148010253906	1303.317138671875	-344.6823120117188	485.0735778808594	1596.657592773438	-361.3982543945312	672.5298461914062	1498.023315429688	-349.158935546875	439.583740234375	1410.411010742188	-273.2232666015625	479.3032531738281	1575.543090820312	-462.6137390136719	568.2373657226562	1564.937377929688	-528.8524169921875	556.1779174804688	1432.072875976562	-598.0243530273438	586.2044677734375	1213.351440429688	-614.8418579101562	516.0709838867188	1198.132568359375	-563.1847534179688	698.01123046875	964.2294311523438	-557.1600952148438	620.3729248046875	931.8690795898438	-590.4398193359375	610.2203369140625	1098.517456054688	-614.6277465820312	717.876708984375	770.664306640625	-528.6969604492188	653.4960327148438	858.2745971679688	-586.9303588867188	718.7763061523438	875.3260498046875	-564.6356811523438	538.12939453125	1579.599365234375	-177.9481506347656	523.7943115234375	1504.822998046875	-115.0823440551758	527.125732421875	1210.054809570312	-96.96178436279297	523.7412719726562	1209.81591796875	-192.8455505371094	680.6420288085938	973.8641967773438	-112.5788650512695	607.7139892578125	953.9917602539062	-80.79534149169922	554.1302490234375	1137.787841796875	-82.04314422607422	712.123779296875	780.6165771484375	-131.5700378417969	714.200927734375	866.5866088867188	-108.3491744995117	649.2457885742188	856.0438232421875	-77.28139495849609	516.6552734375	1771.672607421875	-283.26416015625	682.6513061523438	1843.461791992188	-408.9796142578125	676.207763671875	1848.3505859375	-279.4861755371094	513.4754638671875	1770.604736328125	-418.6036376953125	604.741943359375	1036.72265625	-513.543212890625	645.9232788085938	1032.428588867188	-155.5629119873047	724.59228515625	1108.875	-210.4058227539062	714.39208984375	1107.920043945312	-477.4225463867188	639.7703857421875	536.1657104492188	-483.9323425292969	615.510009765625	681.4313354492188	-509.9085083007812	514.4189453125	35.16143798828125	-471.3679809570312	531.228515625	289.73583984375	-505.7029724121094	749.3247680664062	35.65363693237305	-423.2589416503906	668.58447265625	41.32629013061523	-386.6649780273438	638.0531005859375	32.89753341674805	-501.5669555664062	448.2892456054688	37.01720809936523	-407.2723083496094	645.1255493164062	540.0172119140625	-185.3646240234375	673.9662475585938	825.3715209960938	-164.1849517822266	530.9203491210938	29.72527313232422	-192.1122894287109	617.4916381835938	406.5391540527344	-171.1773986816406	762.5899047851562	42.18308258056641	-250.4039611816406	700.1907348632812	29.37347793579102	-291.4454650878906	665.9713134765625	38.739501953125	-175.0427856445312	472.1845397949219	32.31167984008789	-239.7847290039062	
